<svg xmlns="http://www.w3.org/2000/svg" viewBox="0 0 365.74 79.02"><defs><style>.cls-1,.cls-5{fill:#1d1d1b;}.cls-1,.cls-2,.cls-3,.cls-4{fill-rule:evenodd;}.cls-2{fill:#fff;}.cls-3{fill:#00a7e7;}.cls-4{fill:#e30613;}</style></defs><g id="Warstwa_2" data-name="Warstwa 2"><g id="Warstwa_1-2" data-name="Warstwa 1"><path class="cls-1" d="M227.64,48a10,10,0,0,0,.71-3.88c0-8.8-8.6-9-8.95-9H198.7c-4,0-11.72-2.45-11.72-11.74s7.67-11.74,11.72-11.74h32.42v2.79H198.7c-.35,0-8.95.15-8.95,9s8.6,9,9,9H219.4a14.38,14.38,0,0,1,5.79,1.44c2.71,1.35,5.94,4.25,5.94,10.3a13.91,13.91,0,0,1-.52,3.88Z"/><polygon class="cls-1" points="141.8 47.99 140.41 47.99 140.41 11.7 143.19 11.69 143.19 47.99 141.8 47.99 141.8 47.99"/><path class="cls-1" d="M161.09,48V23.43c0-.36-.15-8.95-9-8.95s-8.95,8.59-8.95,9H140.4a14.35,14.35,0,0,1,1.44-5.79c1.36-2.71,4.25-6,10.3-6,9.28,0,11.74,7.68,11.74,11.74V48Z"/><path class="cls-1" d="M181.78,48V23.43c0-.35-.22-8.95-8.95-8.95s-9,8.6-9,9l-2.79,0c0-4.05,2.52-11.73,11.74-11.73s11.7,7.68,11.73,11.73l0,24.57Z"/><polygon class="cls-1" points="169.22 68.08 184.44 68.08 184.44 68.89 169.22 68.89 169.22 68.08 169.22 68.08"/><path class="cls-1" d="M184.58,69h-15.5v-1.1h15.5V69Zm-15.21-.29H184.3v-.51H169.37v.51Z"/><path class="cls-1" d="M169.22,68.89a6.77,6.77,0,0,1-2.71-.67,4.88,4.88,0,0,1-2.77-4.72c0-5.33,5.43-5.39,5.48-5.39h15.22v.8H169.22c-.19,0-4.65.07-4.65,4.59a4.1,4.1,0,0,0,2.3,4,6.08,6.08,0,0,0,2.35.58v.81Z"/><path class="cls-1" d="M169.37,69h-.15a7.06,7.06,0,0,1-2.78-.68,5,5,0,0,1-2.84-4.85c0-5.47,5.57-5.53,5.62-5.53h15.36v1.09H169.22c-.18,0-4.51,0-4.51,4.44a4,4,0,0,0,2.23,3.87,5.7,5.7,0,0,0,2.28.56h.15V69Zm-.15-10.77c-.05,0-5.33.07-5.33,5.24a4.75,4.75,0,0,0,2.68,4.59,6.68,6.68,0,0,0,2.51.65v-.52a6.23,6.23,0,0,1-2.27-.59,4.22,4.22,0,0,1-2.39-4.13c0-4.68,4.61-4.73,4.8-4.73H184.3v-.51Z"/><path class="cls-1" d="M169.22,58.91c-.05,0-5.48-.09-5.48-5.38s5.43-5.39,5.48-5.39h15.22V49H169.22c-.18,0-4.65.1-4.65,4.58s4.47,4.58,4.66,4.58v.8Z"/><path class="cls-1" d="M169.36,59.06h-.14c-.05,0-5.62-.15-5.62-5.53S169.17,48,169.22,48h15.36v1.1H169.22c-.18,0-4.51.11-4.51,4.44S169,58,169.23,58h.14v1.09Zm-.14-10.77c-.05,0-5.33.12-5.33,5.24,0,4.67,4.34,5.18,5.19,5.24v-.52c-.82,0-4.67-.48-4.67-4.72,0-4.6,4.61-4.73,4.8-4.73H184.3v-.51Z"/><path class="cls-1" d="M141.35,53.64h-.8c0-5.43,5.28-5.49,5.34-5.49h9.93a6,6,0,0,1,4,1.64,5.21,5.21,0,0,1,1.37,3.86h-.79a4.5,4.5,0,0,0-1.15-3.27,5.25,5.25,0,0,0-3.42-1.4h-9.93a4.48,4.48,0,0,0-4.54,4.68Z"/><path class="cls-1" d="M161.33,53.78h-1.09v-.15a4.31,4.31,0,0,0-1.11-3.17,5.16,5.16,0,0,0-3.31-1.36h-9.93a4.32,4.32,0,0,0-4.39,4.54v.14H140.4v-.15c0-5.57,5.42-5.64,5.48-5.64h9.93a6.24,6.24,0,0,1,4.09,1.69,5.42,5.42,0,0,1,1.42,4v.14Zm-20.63-.29h.51a4.59,4.59,0,0,1,4.68-4.67h9.93a5.43,5.43,0,0,1,3.52,1.43,4.6,4.6,0,0,1,1.19,3.24H161a5,5,0,0,0-1.33-3.61,5.85,5.85,0,0,0-3.89-1.59h-9.93c-.06,0-5.06.07-5.19,5.2Z"/><polygon class="cls-1" points="150.45 48.55 151.26 48.55 151.26 68.89 150.45 68.89 150.45 48.55 150.45 48.55"/><path class="cls-1" d="M151.4,69h-1.09V48.41h1.09V69Zm-.81-.29h.52v-20h-.52v20Z"/><path class="cls-1" d="M207.68,68.89h-.81V53.64A4.46,4.46,0,0,0,202.31,49h-9.94a4.09,4.09,0,0,0-4,2.32,6,6,0,0,0-.57,2.36V68.89H187V53.64a6.92,6.92,0,0,1,.66-2.73,4.88,4.88,0,0,1,4.71-2.77h9.94c.05,0,5.37.06,5.37,5.5V68.89Z"/><path class="cls-1" d="M207.82,69h-1.08V53.64a4.33,4.33,0,0,0-4.43-4.54h-9.94a4,4,0,0,0-3.86,2.24,5.93,5.93,0,0,0-.56,2.3V69h-1.09V53.64a7,7,0,0,1,.68-2.79A5,5,0,0,1,192.37,48h9.94c.06,0,5.51.07,5.51,5.65V69Zm-.8-.29h.52V53.64c0-5.28-5.18-5.35-5.23-5.35h-9.94A4.72,4.72,0,0,0,187.79,51a6.59,6.59,0,0,0-.64,2.66v15.1h.51V53.64a6.09,6.09,0,0,1,.59-2.43,4.22,4.22,0,0,1,4.12-2.39h9.94A4.6,4.6,0,0,1,207,53.64v15.1Z"/><polygon class="cls-1" points="187.4 58.31 207.28 58.31 207.28 59.13 187.4 59.13 187.4 58.31 187.4 58.31"/><path class="cls-1" d="M207.42,59.27H187.26V58.16h20.16v1.11ZM187.54,59h19.6v-.53h-19.6V59Z"/><polygon class="cls-1" points="210.3 48.14 211.1 48.14 211.1 68.88 210.3 68.88 210.3 48.14 210.3 48.14"/><path class="cls-1" d="M211.25,69h-1.09V48h1.09V69Zm-.81-.28H211V48.29h-.52V68.74Z"/><path class="cls-1" d="M221,68.88h-.8V53.63c0-.19-.07-4.67-4.57-4.67a4.06,4.06,0,0,0-4,2.32,6,6,0,0,0-.59,2.35h-.8a6.83,6.83,0,0,1,.67-2.72,4.85,4.85,0,0,1,4.7-2.77c5.3,0,5.37,5.44,5.37,5.49V68.88Z"/><path class="cls-1" d="M221.18,69h-1.09V53.63c0-.18,0-4.53-4.42-4.53a4,4,0,0,0-3.86,2.24,5.94,5.94,0,0,0-.56,2.29v.15h-1.09v-.15a7,7,0,0,1,.68-2.78A5,5,0,0,1,215.67,48c5.45,0,5.51,5.59,5.51,5.64V69Zm-.8-.28h.52V53.63c0-.05-.08-5.34-5.23-5.34A4.73,4.73,0,0,0,211.09,51a6.54,6.54,0,0,0-.63,2.51H211a6.27,6.27,0,0,1,.59-2.28,4.2,4.2,0,0,1,4.11-2.39c4.66,0,4.71,4.62,4.71,4.81V68.74Z"/><path class="cls-1" d="M231,68.88h-.8V53.63c0-.18-.1-4.67-4.56-4.67S221,53.45,221,53.64h-.8c0-.05.1-5.49,5.37-5.49S231,53.58,231,53.63V68.88Z"/><path class="cls-1" d="M231.12,69H230V53.63c0-.17-.11-4.53-4.42-4.53s-4.43,4.36-4.43,4.54v.14h-1.09v-.14c0-.23.18-5.64,5.52-5.64s5.51,5.58,5.51,5.64V69Zm-.81-.28h.52V53.63c0-.05-.1-5.34-5.22-5.34-4.65,0-5.17,4.32-5.22,5.2h.51c0-.82.47-4.67,4.71-4.67,4.59,0,4.7,4.62,4.7,4.81V68.74Z"/><path class="cls-2" d="M105.44,22.75l-.92,1.87-.73,1.49h0S117.53,42.19,91.19,52h0l-4.7,9.64a112.22,112.22,0,0,1-22.11,4.59l-8,9c.74,0,1.48,0,2.23,0,29.28,0,53-16,53-35.68a26.86,26.86,0,0,0-6.2-16.77Z"/><path class="cls-3" d="M103.8,26.11S117.53,42.19,91.19,52h0l12.6-25.88Z"/><path class="cls-4" d="M104.31,21.39,103,22.89l-1.11,1.25L64.38,66.22a112.22,112.22,0,0,0,22.11-4.59L91.19,52l12.6-25.88.73-1.49.92-1.87c-.36-.46-.74-.91-1.13-1.36Z"/><path class="cls-3" d="M68.32,25.85c-3.13,2.24-5.46,4-7.51,5.64L56.93,3.84h1.71c19.45,0,36.44,7.05,45.67,17.56L103,22.89c-5-5-11.74-6.32-18.41-4.9-6.34,1.34-11,4.12-16.25,7.86Z"/><path class="cls-3" d="M12.85,39.94,50.44,8.45l3.93,28,0,0-1,.73c-7.15,5.18-11.84,9-21.11,10.41-7.39,1.13-15.85-1.26-18.76-6.36-.26-.47-.49-.92-.69-1.36Z"/><path class="cls-4" d="M56.93,3.84c-2.39.06-4.73.21-7,.47L50,5.52,13.81,25.39a15.72,15.72,0,0,0-1.25,3.07c-.82,2.95-1.91,6.67.29,11.48L50.44,8.45l3.93,28,0,0c2.27-1.69,4.17-3.25,6.42-5L56.93,3.84Z"/><path class="cls-3" d="M50,5.52,13.81,25.39c2.48-4.64,7.33-8.94,12-11.78C36.43,7.15,50,5.52,50,5.52Z"/><path class="cls-3" d="M93.43,20.27a14.42,14.42,0,0,1,8.44,3.87L64.38,66.22l-8,9C34.1,74.55,15.35,64.65,8.46,51.05c4.76,9.11,21,20.92,40,6.23,7-5.43,14.64-14.81,16.17-16.79,5.06-6.55,9.6-11.83,13.71-14.71,5.19-3.64,10.53-5.89,15.09-5.51Z"/><path class="cls-2" d="M84.57,18c-6.34,1.34-11,4.12-16.25,7.86-3.13,2.24-5.46,4-7.51,5.64-2.25,1.78-4.15,3.34-6.42,5l-1,.73c-7.15,5.18-11.84,9-21.11,10.41-7.39,1.13-15.85-1.26-18.76-6.36-.26-.47-.49-.92-.69-1.36-2.2-4.81-1.11-8.53-.29-11.48a15.72,15.72,0,0,1,1.25-3.07c2.48-4.64,7.33-8.94,12-11.78C36.43,7.15,50,5.52,50,5.52L49.9,4.31C30.27,6.51,14.28,16,8.24,28.45a26.59,26.59,0,0,0-1.51,3.78c-.09.32-.18.64-.27,1a26.08,26.08,0,0,0-.74,8.39c0,.31.06.64.1,1A25.84,25.84,0,0,0,8.41,51l0,.07v0c4.76,9.11,21,20.92,40,6.23,7-5.43,14.64-14.81,16.17-16.79,5.06-6.55,9.6-11.83,13.71-14.71,5.19-3.64,10.53-5.89,15.09-5.51a14.42,14.42,0,0,1,8.44,3.87L103,22.89c-5-5-11.74-6.32-18.41-4.9Z"/><path class="cls-1" d="M58.64,0C26.25,0,0,17.69,0,39.51S26.25,79,58.64,79s58.63-17.68,58.63-39.51S91,0,58.64,0Zm0,75.2c-29.27,0-53-16-53-35.68s23.73-35.69,53-35.69,53,16,53,35.69S87.91,75.2,58.63,75.2Z"/><path class="cls-1" d="M327.42,33.46a4.76,4.76,0,0,0-3.12-1.28h-7.55a4.15,4.15,0,0,0-4.17,4.28v.11h.83v-.11A3.29,3.29,0,0,1,316.75,33h7.55a4,4,0,0,1,2.53,1,3.35,3.35,0,0,1,.84,2.41v.11h.82v-.11A4.09,4.09,0,0,0,327.42,33.46Z"/><rect class="cls-5" x="320.11" y="32.5" width="0.83" height="15.68"/><rect class="cls-5" x="248.12" y="47.35" width="11.79" height="0.83"/><path class="cls-1" d="M248.23,40.59h11.68v-.83H248.23S244,39.81,244,44a3.83,3.83,0,0,0,2.16,3.69,5.4,5.4,0,0,0,2.12.52h.11v-.83h-.11a4.52,4.52,0,0,1-1.74-.43,3,3,0,0,1-1.7-3A3.32,3.32,0,0,1,248.23,40.59Z"/><path class="cls-1" d="M361.62,32.18h-7.45a4,4,0,0,0-4.2,4.19v7.39a3.9,3.9,0,0,0,4.1,4.2h7.49a4.78,4.78,0,0,0,3.1-1.25,3.9,3.9,0,0,0,1.08-2.94V36.37A4,4,0,0,0,361.62,32.18Zm3.13,11.58a2.84,2.84,0,0,1-1.53,2.77,4.14,4.14,0,0,1-1.66.43h-7.49a2.91,2.91,0,0,1-3.1-3.2V36.37a3.11,3.11,0,0,1,3.2-3.2h7.45a2.94,2.94,0,0,1,3.13,3.2Z"/><path class="cls-1" d="M347,36.44a3.89,3.89,0,0,0-2.19-3.74,5.74,5.74,0,0,0-1.94-.51h-12V48.07h.74V40.71h11.09a3,3,0,0,0,.43,0l3.16,7.51H347l-3.19-7.65A3.93,3.93,0,0,0,347,36.44Zm-4.34,3.43H331.53V33h11.09a4.52,4.52,0,0,1,1.76.44,3,3,0,0,1,1.72,3A3.36,3.36,0,0,1,342.62,39.87Z"/><path class="cls-1" d="M295.06,32.14V48.22h.74V32.14Zm.19.23h0Z"/><path class="cls-1" d="M310.54,32.14v4.32h.86V32.14Zm.23.06h0Z"/><path class="cls-1" d="M248.23,33h11.68v-.83H248.23s-4.28.09-4.28,4.21,4.24,4.2,4.28,4.2h.1v-.82h-.11c-.14,0-3.44-.06-3.44-3.37S248.09,33,248.23,33Z"/><path class="cls-1" d="M280.58,33h11.68v-.83H280.58s-4.28.09-4.28,4.21a3.8,3.8,0,0,0,2.44,3.78A3.79,3.79,0,0,0,276.3,44a3.82,3.82,0,0,0,2.17,3.69,5.35,5.35,0,0,0,2,.52h11.79v-.83H280.58a4.52,4.52,0,0,1-1.74-.43,3,3,0,0,1-1.7-3,3.32,3.32,0,0,1,3.44-3.38h11.68v-.83H280.59c-.15,0-3.45-.06-3.45-3.37S280.44,33,280.58,33Z"/><path class="cls-1" d="M263.25,44.65v.07a2.57,2.57,0,0,0,.66,1.91,3.09,3.09,0,0,0,2,.81h6a2.6,2.6,0,0,0,2.64-2.73v-.08h.65v.09a3.28,3.28,0,0,1-3.29,3.39h-6a3.78,3.78,0,0,1-2.47-1,3.27,3.27,0,0,1-.85-2.39v-.06h0V32.25h.66v12.4Z"/><path class="cls-1" d="M310.54,36.46c0,3.42-3.38,3.46-3.52,3.46h-12v.85h12s4.38-.05,4.38-4.31Z"/><path class="cls-1" d="M310.55,44.29v3.93h.85V44.29s0-4.38-4.31-4.38v.86C310.51,40.77,310.55,44.15,310.55,44.29Z"/></g></g></svg>