<svg xmlns="http://www.w3.org/2000/svg" width="82" height="73.239" viewBox="0 0 82 73.239">
  <path id="Icon_awesome-map-marked-alt" data-name="Icon awesome-map-marked-alt" d="M40.5,0A17.718,17.718,0,0,0,22.781,17.719c0,7.912,11.58,22.331,16.017,27.565a2.218,2.218,0,0,0,3.4,0C46.638,40.05,58.219,25.63,58.219,17.719A17.718,17.718,0,0,0,40.5,0Zm0,23.625a5.906,5.906,0,1,1,5.906-5.906A5.906,5.906,0,0,1,40.5,23.625ZM2.829,30.368A4.5,4.5,0,0,0,0,34.546v35.2a2.25,2.25,0,0,0,3.085,2.09L22.5,63V30.223A42.586,42.586,0,0,1,19.512,23.7ZM40.5,50.579a6.719,6.719,0,0,1-5.134-2.385C32.6,44.931,29.661,41.216,27,37.4V63l27,9V37.406c-2.661,3.81-5.6,7.526-8.366,10.789A6.722,6.722,0,0,1,40.5,50.579ZM77.915,22.663,58.5,31.5V72l19.671-7.868A4.5,4.5,0,0,0,81,59.954v-35.2A2.25,2.25,0,0,0,77.915,22.663Z" transform="translate(0.5 0.5)" fill="none" stroke="#00abd7" stroke-width="1"/>
</svg>
