<svg xmlns="http://www.w3.org/2000/svg" width="73.04" height="73.041" viewBox="0 0 73.04 73.041">
  <path id="Icon_awesome-phone-alt" data-name="Icon awesome-phone-alt" d="M69.946,50.878,54.2,44.128a3.375,3.375,0,0,0-3.938.97L43.283,53.62A52.124,52.124,0,0,1,18.366,28.7l8.522-6.975a3.367,3.367,0,0,0,.97-3.938L21.108,2.04A3.4,3.4,0,0,0,17.241.085L2.616,3.46A3.375,3.375,0,0,0,0,6.75,65.243,65.243,0,0,0,65.25,72a3.375,3.375,0,0,0,3.291-2.616l3.375-14.625a3.416,3.416,0,0,0-1.97-3.881Z" transform="translate(0.5 0.541)" fill="none" stroke="#00abd7" stroke-width="1"/>
</svg>
